<svg width="132" height="41" viewBox="0 0 132 41" fill="none" xmlns="http://www.w3.org/2000/svg">
<path d="M37.7582 29.0667C37.5517 28.5673 37.3581 28.0424 37.1517 27.5942L36.1968 25.456L36.1581 25.4176C33.3192 19.2717 30.2867 13.0234 27.0736 6.87753L26.9446 6.62145C26.622 6.01966 26.2994 5.35386 25.9639 4.73927C25.5509 4.00945 25.1509 3.22841 24.4928 2.48579C23.8513 1.70876 23.044 1.08272 22.1291 0.65285C21.2141 0.22298 20.2145 0 19.2021 0C18.1898 0 17.1902 0.22298 16.2752 0.65285C15.3603 1.08272 14.553 1.70876 13.9115 2.48579C13.305 3.22841 12.8534 4.00945 12.4404 4.73927C12.1178 5.40508 11.7952 6.05808 11.4597 6.65986L11.3307 6.91594C8.16918 13.0618 5.08511 19.3101 2.24622 25.456L2.1688 25.5328C1.88491 26.1986 1.5494 26.89 1.2268 27.6327C1.02034 28.0808 0.813873 28.5673 0.607408 29.1051C0.0499949 30.5133 -0.128005 32.0412 0.0909519 33.5384C0.309908 35.0356 0.918263 36.4504 1.85606 37.6433C2.79386 38.8361 4.02873 39.766 5.43897 40.3411C6.84922 40.9162 8.38616 41.1168 9.89832 40.9231C11.3481 40.7337 12.744 40.2546 14.0018 39.5147C15.6793 38.58 17.2923 37.2228 19.0989 35.2638C20.9055 37.2228 22.5572 38.58 24.196 39.5275C25.772 40.4453 27.5567 40.9519 29.3834 40.9999C31.4989 41.0086 33.546 40.2577 35.147 38.8856C36.748 37.5136 37.7946 35.6132 38.0937 33.5353C38.4393 32.042 38.3224 30.48 37.7582 29.0539V29.0667ZM19.228 31.1921C17.0085 28.3753 15.5632 25.7889 15.0728 23.5738C14.8697 22.753 14.8259 21.9013 14.9438 21.0642C15.0341 20.4113 15.2793 19.8351 15.6148 19.3485C16.3891 18.2346 17.744 17.5432 19.228 17.5432C19.9327 17.5218 20.6317 17.6744 21.2624 17.9873C21.893 18.3001 22.4355 18.7635 22.8411 19.3357C23.1766 19.8479 23.4218 20.4113 23.4992 21.0642C23.6282 21.8069 23.5766 22.6647 23.3702 23.5738C22.8798 25.7505 21.4345 28.3625 19.228 31.1921ZM35.6677 33.0871C35.5211 34.1421 35.0984 35.1405 34.4419 35.983C33.7853 36.8254 32.9177 37.4824 31.9255 37.8886C30.9448 38.2983 29.8609 38.4135 28.8028 38.2983C27.7704 38.1703 26.7381 37.8374 25.68 37.2228C23.9231 36.1453 22.3433 34.8067 20.9958 33.2536C23.7057 29.9246 25.3445 26.89 25.9639 24.1884C26.2607 22.908 26.2994 21.7557 26.1703 20.6929C26.0092 19.6856 25.6306 18.7248 25.0606 17.8761C24.4097 16.9558 23.5409 16.2083 22.5306 15.6993C21.5204 15.1902 20.3995 14.9353 19.2667 14.9568C16.8794 14.9568 14.7502 16.0579 13.4598 17.8633C12.879 18.7098 12.5035 19.6783 12.363 20.6929C12.1952 21.7685 12.234 22.9592 12.5695 24.1884C13.1889 26.89 14.8664 29.963 17.5375 33.2792C16.2129 34.8619 14.6294 36.2124 12.8534 37.274C11.7823 37.8886 10.7629 38.2087 9.73057 38.3367C8.12516 38.5408 6.50346 38.1078 5.21797 37.132C3.93249 36.1562 3.08712 34.7164 2.86562 33.1255C2.73658 32.1012 2.8269 31.0769 3.23983 29.9246C3.36887 29.5148 3.56244 29.1051 3.7689 28.6186C4.05279 27.9527 4.38829 27.2613 4.7109 26.5699L4.76251 26.4803C7.54979 20.3728 10.5951 14.1373 13.7566 8.02988L13.8857 7.7738C14.2083 7.15921 14.5309 6.50621 14.8664 5.89162C15.2019 5.23863 15.5632 4.61123 16.0277 4.09908C16.4299 3.6228 16.9323 3.23977 17.4997 2.97697C18.0671 2.71416 18.6857 2.57796 19.3118 2.57796C19.938 2.57796 20.5566 2.71416 21.124 2.97697C21.6914 3.23977 22.1938 3.6228 22.5959 4.09908C23.0476 4.61123 23.4218 5.23863 23.7573 5.89162C24.0799 6.50621 24.4025 7.17202 24.738 7.7738L24.867 8.02988C28.0156 14.1373 31.061 20.3728 33.8999 26.4803L33.9386 26.5187C34.2741 27.1845 34.558 27.9271 34.8806 28.5673C35.087 29.0667 35.2935 29.4636 35.4225 29.8861C35.6677 31.0385 35.7968 32.0628 35.6677 33.0871ZM53.6301 30.9105C52.6578 30.9246 51.6947 30.7213 50.8123 30.3156C49.9299 29.91 49.1509 29.3125 48.5331 28.5673C47.1447 26.9796 46.4078 24.9324 46.4684 22.8312C46.4472 20.6842 47.2078 18.6019 48.6105 16.967C49.2593 16.2124 50.0669 15.608 50.9766 15.1966C51.8862 14.7851 52.8757 14.5765 53.8753 14.5855C54.8159 14.5599 55.7477 14.7722 56.5829 15.2022C57.4181 15.6322 58.1294 16.266 58.6498 17.0438L58.7789 15.0336H62.5468V30.5007H58.766L58.6369 28.2472C58.1003 29.0778 57.3587 29.7584 56.4824 30.2245C55.6061 30.6907 54.6243 30.9268 53.6301 30.9105ZM54.6109 27.2229C55.3593 27.2229 56.0174 27.0181 56.6368 26.6468C57.2046 26.237 57.6691 25.6993 58.0304 25.0463C58.353 24.3933 58.5208 23.6122 58.5208 22.7416C58.5711 21.9854 58.4227 21.2291 58.0902 20.5469C57.7578 19.8646 57.2525 19.2796 56.6239 18.8492C56.0199 18.4758 55.3225 18.2778 54.6109 18.2778C53.8992 18.2778 53.2018 18.4758 52.5978 18.8492C52.03 19.2589 51.5655 19.7967 51.2042 20.4497C50.8629 21.1698 50.6951 21.9588 50.7138 22.7544C50.6635 23.5106 50.8119 24.2668 51.1444 24.9491C51.4769 25.6313 51.9821 26.2163 52.6107 26.6468C53.2172 27.0181 53.8753 27.2229 54.6109 27.2229ZM68.9989 10.8595C68.9989 11.3077 68.9214 11.7174 68.715 12.0503C68.5085 12.3704 68.2246 12.6649 67.8504 12.8698C67.4762 13.0746 67.0762 13.1514 66.6632 13.1514C66.2503 13.1514 65.8374 13.0746 65.4632 12.8698C65.1092 12.6742 64.8116 12.3922 64.5986 12.0503C64.3988 11.6856 64.3007 11.2745 64.3147 10.8595C64.3147 10.3986 64.405 9.98887 64.5986 9.66878C64.8051 9.28466 65.1019 9.05419 65.4632 8.84933C65.8374 8.64446 66.2374 8.55484 66.6632 8.55484C67.074 8.54545 67.4802 8.64197 67.8421 8.83498C68.2039 9.02799 68.5092 9.31087 68.7279 9.65597C68.9157 10.0293 69.0087 10.4424 68.9989 10.8595ZM64.6115 30.4495V15.008H68.715V30.4751H64.5986L64.6115 30.4495ZM79.6834 19.054V19.1053C79.4899 19.0156 79.2318 18.9772 79.0382 18.9388C78.7801 18.8876 78.5737 18.8876 78.3285 18.8876C77.18 18.8876 76.3155 19.2205 75.7477 19.9119C75.1283 20.6161 74.8444 21.602 74.8444 22.8696V30.4623H70.728V14.9952H74.5089L74.6379 17.3383C75.0509 16.5189 75.5412 15.9043 76.238 15.4433C76.9312 14.9955 77.7472 14.7718 78.5737 14.8031C78.8705 14.8031 79.1544 14.8287 79.3995 14.88C79.5286 14.9184 79.606 14.9184 79.6834 14.9568V19.054ZM81.3351 30.4495V8.65727H85.4386V16.9798C86.0193 16.2372 86.6774 15.661 87.5033 15.2129C88.8107 14.5768 90.296 14.3964 91.7194 14.7007C93.1429 15.005 94.4215 15.7763 95.349 16.8902C96.7404 18.4812 97.4775 20.5335 97.4136 22.6391C97.4348 24.7861 96.6742 26.8685 95.2715 28.5033C94.6227 29.258 93.815 29.8623 92.9054 30.2737C91.9958 30.6852 91.0063 30.8938 90.0067 30.8848C89.0661 30.9104 88.1343 30.6982 87.2991 30.2681C86.4639 29.8381 85.7526 29.2043 85.2322 28.4265L85.1031 30.4367L81.3351 30.4751V30.4495ZM89.2711 27.2229C90.0067 27.2229 90.6648 27.0181 91.2842 26.6468C91.852 26.237 92.3165 25.6993 92.6778 25.0463C93.0133 24.3933 93.1682 23.6122 93.1682 22.7416C93.1682 21.8837 93.0133 21.1027 92.6778 20.4497C92.3389 19.82 91.8628 19.2732 91.2842 18.8492C90.6802 18.4758 89.9828 18.2778 89.2711 18.2778C88.5595 18.2778 87.8621 18.4758 87.2581 18.8492C86.6774 19.2589 86.2258 19.7967 85.8516 20.4497C85.5103 21.1698 85.3425 21.9588 85.3612 22.7544C85.3109 23.5106 85.4593 24.2668 85.7918 24.9491C86.1242 25.6313 86.6295 26.2163 87.2581 26.6468C87.8646 27.0181 88.5227 27.2229 89.2711 27.2229ZM98.9621 30.4623V14.9952H102.743L102.872 17.0054C103.347 16.2349 104.021 15.6042 104.824 15.1788C105.627 14.7533 106.53 14.5485 107.44 14.5855C108.48 14.5676 109.503 14.8545 110.379 15.4102C111.256 15.9659 111.948 16.7657 112.369 17.7096C112.821 18.6827 113.066 19.8863 113.066 21.2307V30.5007H108.95V21.7685C108.95 20.6929 108.705 19.8479 108.214 19.2205C107.724 18.6059 107.053 18.273 106.201 18.273C105.582 18.273 105.04 18.401 104.562 18.6827C104.111 18.9772 103.737 19.3485 103.453 19.8735C103.166 20.4041 103.023 21 103.04 21.602V30.4623H98.9621ZM115.118 30.4623V8.64446H119.234V16.967C119.792 16.2202 120.517 15.6127 121.353 15.1926C122.188 14.7726 123.111 14.5515 124.048 14.5471C125.02 14.5329 125.983 14.7362 126.865 15.1419C127.748 15.5475 128.527 16.145 129.145 16.8902C130.526 18.4811 131.258 20.5272 131.196 22.6263C131.219 24.7735 130.458 26.8562 129.054 28.4905C128.406 29.2451 127.598 29.8495 126.688 30.2609C125.779 30.6724 124.789 30.881 123.789 30.872C122.849 30.8976 121.917 30.6854 121.082 30.2553C120.247 29.8253 119.535 29.1915 119.015 28.4137L118.899 30.4239L115.118 30.4623ZM123.093 27.2229C123.841 27.2229 124.499 27.0181 125.106 26.6468C125.686 26.237 126.138 25.6993 126.512 25.0463C126.835 24.3933 127.003 23.6122 127.003 22.7416C127.053 21.9854 126.905 21.2291 126.572 20.5469C126.24 19.8646 125.734 19.2796 125.106 18.8492C124.502 18.4758 123.804 18.2778 123.093 18.2778C122.381 18.2778 121.684 18.4758 121.08 18.8492C120.512 19.2589 120.047 19.7967 119.686 20.4497C119.326 21.1634 119.157 21.9571 119.196 22.7544C119.145 23.5106 119.294 24.2668 119.626 24.9491C119.959 25.6313 120.464 26.2163 121.093 26.6468C121.699 27.0181 122.318 27.2229 123.093 27.2229Z" fill="#FF385C"/>
</svg>
