<svg width="8" height="13" viewBox="0 0 8 13" fill="none" xmlns="http://www.w3.org/2000/svg">
<path d="M7.28649 0.00268021L5.60774 0C3.72173 0 2.5029 1.24429 2.5029 3.17016V4.63181H0.814993C0.669137 4.63181 0.551025 4.74947 0.551025 4.89461V7.01238C0.551025 7.15751 0.669272 7.27504 0.814993 7.27504H2.5029V12.6189C2.5029 12.764 2.62101 12.8815 2.76687 12.8815H4.96911C5.11496 12.8815 5.23307 12.7639 5.23307 12.6189V7.27504H7.20663C7.35249 7.27504 7.4706 7.15751 7.4706 7.01238L7.4714 4.89461C7.4714 4.82492 7.44353 4.75818 7.3941 4.70887C7.34467 4.65955 7.27734 4.63181 7.2073 4.63181H5.23307V3.39275C5.23307 2.79721 5.3757 2.49488 6.15534 2.49488L7.28622 2.49448C7.43194 2.49448 7.55006 2.37681 7.55006 2.23181V0.265341C7.55006 0.120476 7.43208 0.00294824 7.28649 0.00268021Z" fill="#000B33"/>
</svg>
