<svg width="117" height="36" viewBox="0 0 117 36" fill="none" xmlns="http://www.w3.org/2000/svg">
<path d="M86.9592 33.9339L96.6786 23.1691L86.9592 12.4028H97.2142L102.028 17.6324L106.663 12.4028H116.561L106.887 23.1247L116.693 33.9339H106.396L101.626 28.6614L96.901 33.9339H86.9592Z" fill="#FF6600"/>
<path d="M86.9592 7.57623H75.9513V12.4027H86.9592V19.6766H75.9513V26.3532H86.9592V33.9338H67.8605V0.0166016H86.9592V7.57623Z" fill="#FF6600"/>
<path d="M59.8046 0.0166016V13.8971H59.7159C57.9322 11.8762 55.7037 11.174 53.1179 11.174C47.8212 11.174 43.8313 14.7233 42.4307 19.4159C40.8335 14.2453 36.7144 11.0771 30.6064 11.0771C25.6461 11.0771 21.7292 13.2718 19.6851 16.8481V12.4032H9.43216V7.57723H20.621V0.0166016H0.29248V33.9343H9.43216V19.6766H18.542C18.2703 20.724 18.1254 21.8454 18.1254 23.0286C18.1254 30.1038 23.6086 35.0681 30.6064 35.0681C36.4909 35.0681 40.3689 32.3449 42.4201 27.3801H34.5877C33.5282 28.8715 32.7245 29.3146 30.6064 29.3146C28.1503 29.3146 26.0328 27.2023 26.0328 24.6984H41.9812C42.6729 30.318 47.1138 35.1645 53.2081 35.1645C55.8369 35.1645 58.2439 33.8898 59.7159 31.7376H59.8046V33.9333H67.8614V0.0166016H59.8046ZM26.2871 19.778C26.7954 17.6238 28.4904 16.2157 30.6064 16.2157C32.9358 16.2157 34.5446 17.5803 34.9677 19.778C35.1461 19.778 26.2871 19.778 26.2871 19.778ZM54.9152 28.7696C51.9453 28.7696 50.0999 26.042 50.0999 23.194C50.0999 20.1496 51.7052 17.2222 54.9152 17.2222C58.2439 17.2222 59.5699 20.1496 59.5699 23.194C59.5694 26.0809 58.1643 28.7696 54.9152 28.7696Z" fill="#652C8F"/>
</svg>
