<svg width="122" height="40" viewBox="0 0 122 40" fill="none" xmlns="http://www.w3.org/2000/svg">
<path d="M52.4863 21.2697C52.4863 26.9316 47.9918 31.1038 42.4761 31.1038C36.9603 31.1038 32.4658 26.9316 32.4658 21.2697C32.4658 15.5678 36.9603 11.4355 42.4761 11.4355C47.9918 11.4355 52.4863 15.5678 52.4863 21.2697ZM48.1043 21.2697C48.1043 17.7315 45.4994 15.3107 42.4761 15.3107C39.4528 15.3107 36.8478 17.7315 36.8478 21.2697C36.8478 24.7724 39.4528 27.2287 42.4761 27.2287C45.4994 27.2287 48.1043 24.7679 48.1043 21.2697Z" fill="#EA4335"/>
<path d="M74.0817 21.2697C74.0817 26.9316 69.5872 31.1038 64.0714 31.1038C58.5557 31.1038 54.0612 26.9316 54.0612 21.2697C54.0612 15.5723 58.5557 11.4355 64.0714 11.4355C69.5872 11.4355 74.0817 15.5678 74.0817 21.2697ZM69.6997 21.2697C69.6997 17.7315 67.0948 15.3107 64.0714 15.3107C61.0481 15.3107 58.4432 17.7315 58.4432 21.2697C58.4432 24.7724 61.0481 27.2287 64.0714 27.2287C67.0948 27.2287 69.6997 24.7679 69.6997 21.2697Z" fill="#FBBC05"/>
<path d="M94.7771 12.0297V29.685C94.7771 36.9476 90.4311 39.9138 85.2932 39.9138C80.4568 39.9138 77.546 36.7259 76.4482 34.1188L80.2634 32.5537C80.9427 34.1543 82.6073 36.0431 85.2887 36.0431C88.5775 36.0431 90.6155 34.0434 90.6155 30.2791V28.8648H90.4626C89.4818 30.0574 87.5922 31.0994 85.2077 31.0994C80.2184 31.0994 75.6474 26.8164 75.6474 21.3052C75.6474 15.7541 80.2184 11.4355 85.2077 11.4355C87.5877 11.4355 89.4773 12.4775 90.4626 13.6347H90.6155V12.0341H94.7771V12.0297ZM90.926 21.3052C90.926 17.8424 88.582 15.3107 85.5992 15.3107C82.5758 15.3107 80.0429 17.8424 80.0429 21.3052C80.0429 24.7325 82.5758 27.2287 85.5992 27.2287C88.582 27.2287 90.926 24.7325 90.926 21.3052Z" fill="#4285F4"/>
<path d="M101.637 1.68115V30.5008H97.3634V1.68115H101.637Z" fill="#34A853"/>
<path d="M118.294 24.5064L121.695 26.741C120.597 28.3416 117.952 31.0994 113.381 31.0994C107.712 31.0994 103.479 26.7809 103.479 21.2653C103.479 15.4171 107.748 11.4312 112.89 11.4312C118.069 11.4312 120.602 15.4925 121.43 17.6872L121.884 18.8045L108.544 24.2492C109.566 26.2223 111.154 27.2287 113.381 27.2287C115.612 27.2287 117.16 26.1469 118.294 24.5064ZM107.825 20.9682L116.742 17.3192C116.251 16.0911 114.776 15.2353 113.039 15.2353C110.812 15.2353 107.712 17.1729 107.825 20.9682Z" fill="#EA4335"/>
<path d="M16.2877 18.7115V14.5393H30.554C30.6935 15.2664 30.7655 16.1266 30.7655 17.0577C30.7655 20.1879 29.8972 24.0586 27.0988 26.8165C24.3769 29.6097 20.8992 31.0995 16.2922 31.0995C7.75314 31.0995 0.572754 24.2449 0.572754 15.8295C0.572754 7.4142 7.75314 0.55957 16.2922 0.55957C21.0162 0.55957 24.3814 2.38629 26.9098 4.76723L23.9225 7.71127C22.1094 6.0353 19.653 4.73176 16.2877 4.73176C10.0521 4.73176 5.17522 9.6843 5.17522 15.8295C5.17522 21.9748 10.0521 26.9273 16.2877 26.9273C20.3323 26.9273 22.6358 25.3267 24.1115 23.8724C25.3082 22.693 26.0955 21.0082 26.406 18.7071L16.2877 18.7115Z" fill="#4285F4"/>
</svg>
