<svg width="123" height="35" viewBox="0 0 123 35" fill="none" xmlns="http://www.w3.org/2000/svg">
<path d="M13.4525 5.80615V15.6684H4.46643V5.80615H0.200195V29.3484H4.46643V19.8063H13.4525V29.3484H17.7187V5.80615H13.4525Z" fill="#33475B"/>
<path d="M31.3729 21.7383C31.3729 22.6818 31.0011 23.5866 30.3392 24.2538C29.6773 24.9209 28.7796 25.2957 27.8435 25.2957C26.9075 25.2957 26.0098 24.9209 25.3479 24.2538C24.686 23.5866 24.3141 22.6818 24.3141 21.7383V11.6548H20.2674V21.7383C20.2674 23.7616 21.0648 25.7021 22.4842 27.1328C23.9037 28.5635 25.8288 29.3673 27.8362 29.3673C29.8436 29.3673 31.7688 28.5635 33.1882 27.1328C34.6076 25.7021 35.4051 23.7616 35.4051 21.7383V11.6548H31.3729V21.7383Z" fill="#33475B"/>
<path d="M61.3558 12.6935C61.3558 10.6267 62.7123 9.97144 64.1985 9.97144C65.3962 9.97144 66.9786 10.89 68.0133 12.0046L70.6637 8.85691C69.3406 7.05342 66.6567 5.80615 64.4598 5.80615C60.0702 5.80615 56.8951 8.39761 56.8951 12.6935C56.8951 20.6638 66.5605 18.1356 66.5605 22.5958C66.5605 23.9716 65.2353 25.1873 63.7178 25.1873C61.3244 25.1873 60.5489 24.0074 59.4494 22.7602L56.5084 25.8425C58.3897 28.1706 60.7099 29.3526 63.4899 29.3526C67.66 29.3526 71.0149 26.7295 71.0149 22.6295C71.0149 13.7807 61.3495 16.5301 61.3495 12.6935" fill="#33475B"/>
<path d="M121.149 25.5874C118.758 25.5874 118.079 24.5445 118.079 22.9475V15.8789H121.795V12.2973H118.079V7.57153L113.975 9.42769V23.8261C113.975 27.5089 116.496 29.365 119.953 29.365C120.496 29.375 121.038 29.3312 121.571 29.2344L122.573 25.52C122.121 25.5516 121.603 25.5832 121.149 25.5832" fill="#33475B"/>
<path d="M46.7759 11.7733C44.7713 11.7733 43.3729 12.359 42.0205 13.6968V5.94775H37.9675V20.3103C37.9675 25.6871 41.824 29.3699 46.1572 29.3699C50.9648 29.3699 55.1934 25.6217 55.1934 20.5737C55.1934 15.5888 51.3013 11.7754 46.7759 11.7754V11.7733ZM46.7508 25.2594C45.8413 25.2594 44.9522 24.9875 44.196 24.4782C43.4397 23.9689 42.8503 23.245 42.5023 22.398C42.1542 21.5511 42.0631 20.6191 42.2406 19.72C42.418 18.8208 42.856 17.9949 43.4991 17.3467C44.1422 16.6985 44.9616 16.257 45.8537 16.0782C46.7457 15.8993 47.6703 15.9911 48.5106 16.3419C49.3509 16.6928 50.0691 17.2869 50.5744 18.0491C51.0797 18.8113 51.3494 19.7075 51.3494 20.6242C51.3494 21.8536 50.8649 23.0325 50.0025 23.9018C49.1401 24.771 47.9704 25.2594 46.7508 25.2594Z" fill="#33475B"/>
<path d="M90.7846 20.3587C90.7846 15.3022 86.5644 11.5625 81.7484 11.5625C77.4153 11.5625 73.5588 15.2453 73.5588 20.6221V34.993H77.6118V27.2334C78.9621 28.5692 80.3626 29.157 82.3651 29.157C86.8905 29.157 90.7826 25.3457 90.7826 20.3587H90.7846ZM86.9469 20.3081C86.9469 21.2249 86.6772 22.121 86.1719 22.8833C85.6666 23.6455 84.9484 24.2396 84.1081 24.5904C83.2679 24.9412 82.3432 25.033 81.4512 24.8542C80.5592 24.6753 79.7398 24.2339 79.0967 23.5857C78.4535 22.9374 78.0156 22.1115 77.8381 21.2124C77.6607 20.3133 77.7517 19.3813 78.0998 18.5343C78.4479 17.6874 79.0373 16.9635 79.7935 16.4542C80.5497 15.9449 81.4388 15.673 82.3483 15.673C83.568 15.673 84.7376 16.1614 85.6 17.0306C86.4624 17.8999 86.9469 19.0788 86.9469 20.3081Z" fill="#33475B"/>
<path d="M103.878 11.3642V7.26003C104.416 7.0066 104.872 6.60433 105.192 6.10004C105.512 5.59576 105.683 5.0102 105.686 4.41154V4.31673C105.686 3.47856 105.356 2.67473 104.768 2.08205C104.18 1.48938 103.382 1.15642 102.55 1.15642H102.456C101.625 1.15642 100.827 1.48938 100.239 2.08205C99.6513 2.67473 99.321 3.47856 99.321 4.31673V4.41154C99.3238 5.0102 99.4952 5.59576 99.8153 6.10004C100.135 6.60433 100.591 7.0066 101.129 7.26003V11.3642C99.5825 11.6027 98.1259 12.2489 96.9067 13.2372L85.7406 4.47053C85.8196 4.18144 85.8617 3.88337 85.866 3.58354C85.8672 2.87923 85.6612 2.19036 85.274 1.60409C84.8867 1.01781 84.3357 0.560448 83.6906 0.28986C83.0454 0.0192732 82.3352 -0.0523868 81.6496 0.0839446C80.9641 0.220276 80.3341 0.558474 79.8392 1.05576C79.3444 1.55305 79.007 2.18708 78.8697 2.87767C78.7324 3.56825 78.8014 4.28437 79.068 4.93543C79.3345 5.58648 79.7866 6.14324 80.3672 6.53527C80.9477 6.92731 81.6305 7.137 82.3292 7.13783C82.9403 7.13508 83.5399 6.97091 84.0683 6.66168L95.0652 15.2851C94.0771 16.7894 93.5616 18.5588 93.5858 20.3627C93.61 22.1667 94.1729 23.9214 95.2011 25.3981L91.8567 28.7691C91.5862 28.6821 91.3044 28.6359 91.0206 28.6322C90.4469 28.6326 89.8863 28.8044 89.4095 29.1259C88.9327 29.4474 88.5611 29.9041 88.3418 30.4384C88.1225 30.9726 88.0652 31.5605 88.1772 32.1275C88.2892 32.6946 88.5655 33.2155 88.9711 33.6243C89.3768 34.0332 89.8935 34.3116 90.4561 34.4246C91.0187 34.5375 91.6019 34.4797 92.132 34.2586C92.662 34.0376 93.1152 33.6631 93.4341 33.1825C93.7531 32.7019 93.9235 32.1368 93.9239 31.5586C93.9203 31.2725 93.8746 30.9884 93.7881 30.7159L97.097 27.3807C98.1759 28.2176 99.4306 28.7944 100.765 29.0671C102.099 29.3398 103.478 29.3011 104.795 28.9539C106.112 28.6067 107.333 27.9603 108.364 27.0641C109.395 26.1679 110.209 25.0458 110.743 23.7836C111.277 22.5215 111.518 21.1528 111.447 19.7824C111.375 18.4121 110.994 17.0764 110.331 15.8776C109.668 14.6789 108.742 13.6489 107.624 12.8666C106.505 12.0843 105.224 11.5704 103.878 11.3642ZM102.507 24.8609C101.601 24.86 100.717 24.5888 99.9647 24.0813C99.2125 23.5739 98.6264 22.8532 98.2805 22.0101C97.9346 21.167 97.8444 20.2395 98.0214 19.3448C98.1983 18.4501 98.6344 17.6284 99.2746 16.9834C99.9147 16.3385 100.73 15.8993 101.618 15.7214C102.506 15.5434 103.426 15.6347 104.262 15.9838C105.098 16.3328 105.813 16.9239 106.316 17.6823C106.819 18.4407 107.088 19.3324 107.088 20.2447C107.088 21.4684 106.606 22.642 105.748 23.5073C104.889 24.3726 103.725 24.8588 102.511 24.8588" fill="#FF7A59"/>
</svg>
