<svg width="140" height="140" viewBox="0 0 140 140" fill="none" xmlns="http://www.w3.org/2000/svg">
<g filter="url(#filter0_d_0_354)">
<circle cx="70" cy="66" r="30" fill="white"/>
</g>
<path d="M83.2182 63.8942L76.9623 69.9763L78.4407 78.561C78.4518 78.6302 78.4437 78.701 78.4172 78.7659C78.3906 78.8307 78.3467 78.8871 78.2902 78.9287C78.2253 78.9745 78.1478 78.9994 78.0683 79C78.0077 79.0002 77.948 78.9847 77.8953 78.955L70.1648 74.9028L62.4343 78.955C62.3726 78.9876 62.3029 79.0025 62.2331 78.9979C62.1633 78.9932 62.0962 78.9693 62.0394 78.9287C61.9829 78.8871 61.939 78.8307 61.9124 78.7659C61.8859 78.701 61.8777 78.6302 61.8889 78.561L63.3673 69.9763L57.1114 63.8942C57.0617 63.8451 57.0268 63.7832 57.0104 63.7154C56.9941 63.6476 56.997 63.5765 57.0189 63.5103C57.0408 63.444 57.0807 63.3852 57.1343 63.3403C57.1878 63.2955 57.2529 63.2664 57.3221 63.2564L65.9629 62.0032L69.8262 54.1914C69.8613 54.133 69.9109 54.0847 69.9702 54.0512C70.0296 54.0176 70.0966 54 70.1648 54C70.233 54 70.3 54.0176 70.3594 54.0512C70.4187 54.0847 70.4683 54.133 70.5034 54.1914L74.3667 62.0032L83.0075 63.2564C83.0767 63.2664 83.1417 63.2955 83.1953 63.3403C83.2489 63.3852 83.2888 63.444 83.3107 63.5103C83.3326 63.5765 83.3355 63.6476 83.3192 63.7154C83.3028 63.7832 83.2678 63.8451 83.2182 63.8942Z" fill="#2B59FF"/>
<defs>
<filter id="filter0_d_0_354" x="0" y="0" width="140" height="140" filterUnits="userSpaceOnUse" color-interpolation-filters="sRGB">
<feFlood flood-opacity="0" result="BackgroundImageFix"/>
<feColorMatrix in="SourceAlpha" type="matrix" values="0 0 0 0 0 0 0 0 0 0 0 0 0 0 0 0 0 0 127 0" result="hardAlpha"/>
<feOffset dy="4"/>
<feGaussianBlur stdDeviation="20"/>
<feColorMatrix type="matrix" values="0 0 0 0 0.168627 0 0 0 0 0.34902 0 0 0 0 1 0 0 0 0.08 0"/>
<feBlend mode="normal" in2="BackgroundImageFix" result="effect1_dropShadow_0_354"/>
<feBlend mode="normal" in="SourceGraphic" in2="effect1_dropShadow_0_354" result="shape"/>
</filter>
</defs>
</svg>
