<svg width="140" height="140" viewBox="0 0 140 140" fill="none" xmlns="http://www.w3.org/2000/svg">
<g filter="url(#filter0_d_0_304)">
<circle cx="70" cy="66" r="30" fill="white"/>
</g>
<path d="M69.9099 65.2666C72.7523 65.2666 75.0565 62.9683 75.0565 60.1333C75.0565 57.2983 72.7523 55 69.9099 55C67.0675 55 64.7633 57.2983 64.7633 60.1333C64.7633 62.9683 67.0675 65.2666 69.9099 65.2666Z" fill="#00BB98"/>
<path d="M80.2022 68.1999C82.2325 68.1999 83.8783 66.5583 83.8783 64.5333C83.8783 62.5083 82.2325 60.8667 80.2022 60.8667C78.172 60.8667 76.5261 62.5083 76.5261 64.5333C76.5261 66.5583 78.172 68.1999 80.2022 68.1999Z" fill="#00BB98"/>
<path d="M59.7207 68.1999C61.7509 68.1999 63.3968 66.5583 63.3968 64.5333C63.3968 62.5083 61.7509 60.8667 59.7207 60.8667C57.6904 60.8667 56.0446 62.5083 56.0446 64.5333C56.0446 66.5583 57.6904 68.1999 59.7207 68.1999Z" fill="#00BB98"/>
<path d="M69.9095 66.7329C64.6394 66.7329 60.3516 71.0097 60.3516 76.2661C60.3516 76.6709 60.681 76.9995 61.0868 76.9995H78.7322C79.1381 76.9995 79.4675 76.6709 79.4675 76.2661C79.4675 71.0097 75.1796 66.7329 69.9095 66.7329Z" fill="#00BB98"/>
<path d="M60.989 69.8249C60.539 69.7295 60.0817 69.6665 59.617 69.6665C55.9688 69.6665 53 72.6277 53 76.2664C53 76.6712 53.3294 76.9998 53.7352 76.9998H59.0171C58.9347 76.7695 58.8818 76.5246 58.8818 76.2664C58.8818 73.8597 59.67 71.6377 60.989 69.8249Z" fill="#00BB98"/>
<path d="M80.2029 69.6665C79.7382 69.6665 79.2809 69.7295 78.8309 69.8249C80.1499 71.6377 80.9381 73.8597 80.9381 76.2664C80.9381 76.5246 80.8852 76.7695 80.8028 76.9998H86.0846C86.4905 76.9998 86.8199 76.6712 86.8199 76.2664C86.8199 72.6277 83.851 69.6665 80.2029 69.6665Z" fill="#00BB98"/>
<defs>
<filter id="filter0_d_0_304" x="0" y="0" width="140" height="140" filterUnits="userSpaceOnUse" color-interpolation-filters="sRGB">
<feFlood flood-opacity="0" result="BackgroundImageFix"/>
<feColorMatrix in="SourceAlpha" type="matrix" values="0 0 0 0 0 0 0 0 0 0 0 0 0 0 0 0 0 0 127 0" result="hardAlpha"/>
<feOffset dy="4"/>
<feGaussianBlur stdDeviation="20"/>
<feColorMatrix type="matrix" values="0 0 0 0 0.168627 0 0 0 0 0.34902 0 0 0 0 1 0 0 0 0.08 0"/>
<feBlend mode="normal" in2="BackgroundImageFix" result="effect1_dropShadow_0_304"/>
<feBlend mode="normal" in="SourceGraphic" in2="effect1_dropShadow_0_304" result="shape"/>
</filter>
</defs>
</svg>
