<svg width="140" height="140" viewBox="0 0 140 140" fill="none" xmlns="http://www.w3.org/2000/svg">
<g filter="url(#filter0_d_0_329)">
<circle cx="70" cy="66" r="30" fill="white"/>
</g>
<path d="M73.2379 74.0094L71.588 75.655V68.5456C71.588 67.8431 71.0176 67.2729 70.312 67.2729C69.6064 67.2729 69.036 67.8431 69.036 68.5456V75.655L67.3861 74.0094C66.8872 73.5118 66.0808 73.5118 65.5819 74.0094C65.083 74.507 65.083 75.3114 65.5819 75.809L69.4087 79.6259C69.5261 79.7443 69.6677 79.8372 69.8247 79.9021C69.9804 79.9657 70.1462 80.0001 70.3121 80.0001C70.4779 80.0001 70.6439 79.9657 70.7995 79.9021C70.9565 79.8372 71.0981 79.7443 71.2155 79.6259L75.0423 75.809C75.5412 75.3114 75.5412 74.507 75.0423 74.0094C74.5433 73.5117 73.7368 73.5117 73.2379 74.0094Z" fill="#FFC83E"/>
<path d="M81.7236 61.1941C81.1405 56.8159 77.121 52 72.2874 52C69.6959 52 67.0609 53.2702 65.3013 55.3078C64.7385 55.1028 64.1426 54.9972 63.5353 54.9972C60.7855 54.9972 58.532 57.1583 58.3942 59.868C56.3628 61.1738 55 63.5856 55 65.9999C55 67.5119 55.5027 69.1893 56.3794 70.6008C57.5405 72.4729 59.6702 73.6362 61.9364 73.6362H62.8883C63.0759 73.1067 63.3681 72.618 63.7777 72.2095C64.4999 71.4878 65.462 71.0908 66.4841 71.0908V68.5453C66.4841 66.4402 68.2004 64.7271 70.3122 64.7271C72.4227 64.7271 74.1402 66.4402 74.1402 68.5453V71.0908C75.1611 71.0908 76.1231 71.4878 76.8466 72.2095C77.2562 72.618 77.5472 73.1067 77.736 73.6362H79.072C82.3833 73.6362 85.2428 71.1773 85.5822 68.0375C85.6103 67.7868 85.6244 67.531 85.6244 67.2727C85.6244 64.3505 84.1238 62.0634 81.7236 61.1941Z" fill="#FFC83E"/>
<defs>
<filter id="filter0_d_0_329" x="0" y="0" width="140" height="140" filterUnits="userSpaceOnUse" color-interpolation-filters="sRGB">
<feFlood flood-opacity="0" result="BackgroundImageFix"/>
<feColorMatrix in="SourceAlpha" type="matrix" values="0 0 0 0 0 0 0 0 0 0 0 0 0 0 0 0 0 0 127 0" result="hardAlpha"/>
<feOffset dy="4"/>
<feGaussianBlur stdDeviation="20"/>
<feColorMatrix type="matrix" values="0 0 0 0 0.168627 0 0 0 0 0.34902 0 0 0 0 1 0 0 0 0.08 0"/>
<feBlend mode="normal" in2="BackgroundImageFix" result="effect1_dropShadow_0_329"/>
<feBlend mode="normal" in="SourceGraphic" in2="effect1_dropShadow_0_329" result="shape"/>
</filter>
</defs>
</svg>
