<svg width="140" height="140" viewBox="0 0 140 140" fill="none" xmlns="http://www.w3.org/2000/svg">
<g filter="url(#filter0_d_0_166)">
<circle cx="70" cy="66" r="30" fill="#FFC83E"/>
</g>
<path d="M65.401 76.4039H62.4004C61.8699 76.4039 61.3611 76.1931 60.9859 75.818C60.6108 75.4429 60.4 74.934 60.4 74.4035V67.4022C60.4 66.8716 60.6108 66.3628 60.9859 65.9877C61.3611 65.6125 61.8699 65.4018 62.4004 65.4018H65.401M72.4023 63.4014V59.4006C72.4023 58.6048 72.0862 57.8416 71.5235 57.2789C70.9608 56.7162 70.1976 56.4 69.4018 56.4L65.401 65.4018V76.4039H76.6832C77.1656 76.4094 77.6337 76.2403 78.0013 75.9278C78.3689 75.6154 78.6112 75.1806 78.6836 74.7036L80.0638 65.7018C80.1073 65.4151 80.088 65.1224 80.0072 64.8439C79.9263 64.5654 79.7859 64.3078 79.5956 64.089C79.4053 63.8702 79.1697 63.6954 78.9052 63.5766C78.6406 63.4579 78.3534 63.3981 78.0634 63.4014H72.4023Z" stroke="white" stroke-width="2" stroke-linecap="round" stroke-linejoin="round"/>
<defs>
<filter id="filter0_d_0_166" x="0" y="0" width="140" height="140" filterUnits="userSpaceOnUse" color-interpolation-filters="sRGB">
<feFlood flood-opacity="0" result="BackgroundImageFix"/>
<feColorMatrix in="SourceAlpha" type="matrix" values="0 0 0 0 0 0 0 0 0 0 0 0 0 0 0 0 0 0 127 0" result="hardAlpha"/>
<feOffset dy="4"/>
<feGaussianBlur stdDeviation="20"/>
<feColorMatrix type="matrix" values="0 0 0 0 0.168627 0 0 0 0 0.34902 0 0 0 0 1 0 0 0 0.08 0"/>
<feBlend mode="normal" in2="BackgroundImageFix" result="effect1_dropShadow_0_166"/>
<feBlend mode="normal" in="SourceGraphic" in2="effect1_dropShadow_0_166" result="shape"/>
</filter>
</defs>
</svg>
