<svg width="13" height="12" viewBox="0 0 13 12" fill="none" xmlns="http://www.w3.org/2000/svg">
<path d="M12.0378 11.4127V11.4122H12.0406V7.2789C12.0406 5.25685 11.6031 3.69922 9.22746 3.69922C8.08541 3.69922 7.319 4.32283 7.00611 4.91405H6.97308V3.88799H4.72058V11.4122H7.06605V7.68651C7.06605 6.70553 7.25293 5.75696 8.4738 5.75696C9.67674 5.75696 9.69467 6.87646 9.69467 7.74943V11.4127H12.0378Z" fill="#000B33"/>
<path d="M0.901062 3.90161H3.24936V11.4258H0.901062V3.90161Z" fill="#000B33"/>
<path d="M2.0814 0.155273C1.33057 0.155273 0.721313 0.761514 0.721313 1.50863C0.721313 2.25575 1.33057 2.87467 2.0814 2.87467C2.83223 2.87467 3.44149 2.25575 3.44149 1.50863C3.44102 0.761514 2.83176 0.155273 2.0814 0.155273V0.155273Z" fill="#000B33"/>
</svg>
