<svg width="13" height="13" viewBox="0 0 13 13" fill="none" xmlns="http://www.w3.org/2000/svg">
<path d="M8.3934 0.154297H3.81518C1.70844 0.154297 0 1.85428 0 3.95059V8.50615C0 10.6025 1.70844 12.3024 3.81518 12.3024H8.3934C10.5001 12.3024 12.2086 10.6025 12.2086 8.50615V3.95059C12.2086 1.85428 10.5001 0.154297 8.3934 0.154297ZM11.064 8.50615C11.064 9.97152 9.86606 11.1636 8.3934 11.1636H3.81518C2.34252 11.1636 1.14455 9.97152 1.14455 8.50615V3.95059C1.14455 2.48522 2.34252 1.29319 3.81518 1.29319H8.3934C9.86606 1.29319 11.064 2.48522 11.064 3.95059V8.50615Z" fill="#000B33"/>
<path d="M6.1105 3.19824C4.42495 3.19824 3.05835 4.55808 3.05835 6.23528C3.05835 7.91248 4.42495 9.27232 6.1105 9.27232C7.79604 9.27232 9.16264 7.91248 9.16264 6.23528C9.16264 4.55808 7.79604 3.19824 6.1105 3.19824ZM6.1105 8.13343C5.05903 8.13343 4.2029 7.28154 4.2029 6.23528C4.2029 5.18826 5.05903 4.33713 6.1105 4.33713C7.16196 4.33713 8.01809 5.18826 8.01809 6.23528C8.01809 7.28154 7.16196 8.13343 6.1105 8.13343Z" fill="#000B33"/>
<path d="M9.37697 3.37784C9.60216 3.37784 9.7847 3.19619 9.7847 2.97212C9.7847 2.74805 9.60216 2.56641 9.37697 2.56641C9.15179 2.56641 8.96924 2.74805 8.96924 2.97212C8.96924 3.19619 9.15179 3.37784 9.37697 3.37784Z" fill="#000B33"/>
</svg>
