<svg width="109" height="31" viewBox="0 0 109 31" fill="none" xmlns="http://www.w3.org/2000/svg">
<circle cx="15.5373" cy="15.0351" r="15" transform="rotate(-0.134228 15.5373 15.0351)" fill="#FD4C5C"/>
<path d="M19.9582 23.0703H23.2222L16.5502 6.34231H14.2942L7.5982 23.0703H10.8622L12.1342 19.6143H18.6862L19.9582 23.0703ZM13.1662 16.8543L15.4222 10.7583L17.6782 16.8543H13.1662ZM42.9864 10.9983C41.7144 10.9983 40.3944 11.4063 39.5784 12.4143V11.2383H36.6984V27.9663H39.5784V21.8703C40.3224 22.7583 41.6424 23.3103 42.9864 23.3103C45.8904 23.3103 47.9784 21.0303 47.9784 17.1663C47.9784 13.6143 46.2024 10.9983 42.9864 10.9983ZM42.2664 20.7903C40.2024 20.7903 39.3144 19.2063 39.3144 17.1423C39.3144 15.0303 40.2024 13.5183 42.2904 13.5183C44.2104 13.5183 45.0984 14.8143 45.0984 17.1423C45.0984 19.4463 44.1864 20.7903 42.2664 20.7903ZM56.7442 10.9983C55.4722 10.9983 54.1522 11.4063 53.3362 12.4143V11.2383H50.4562V27.9663H53.3362V21.8703C54.0802 22.7583 55.4002 23.3103 56.7442 23.3103C59.6482 23.3103 61.7362 21.0303 61.7362 17.1663C61.7362 13.6143 59.9602 10.9983 56.7442 10.9983ZM56.0242 20.7903C53.9602 20.7903 53.0722 19.2063 53.0722 17.1423C53.0722 15.0303 53.9602 13.5183 56.0482 13.5183C57.9682 13.5183 58.8562 14.8143 58.8562 17.1423C58.8562 19.4463 57.9442 20.7903 56.0242 20.7903ZM77.414 10.9983C75.878 10.9983 74.51 11.5503 73.598 13.3263C72.878 11.5023 71.438 10.9983 70.142 10.9983C68.966 10.9983 67.742 11.4063 66.974 12.7263V11.2383H64.19L64.214 23.0703H67.094V18.5583C67.094 16.1823 67.022 13.5183 69.446 13.5183C71.318 13.5183 71.438 15.4623 71.438 16.3983V23.0703H74.318V18.5583C74.318 16.1823 74.222 13.5183 76.646 13.5183C78.542 13.5183 78.662 15.4623 78.662 16.3983V23.0703H81.542V15.5343C81.542 13.1583 80.27 10.9983 77.414 10.9983ZM89.1881 10.9983C87.0281 10.9983 85.2761 11.8383 83.8601 13.5423L85.9481 15.2943C86.8121 14.1423 87.9401 13.5183 89.1401 13.5183C90.5081 13.5183 91.3721 14.3103 91.3721 15.6063V15.9423H88.4201C87.0761 15.9423 86.0681 16.1103 85.2761 16.4703C84.1241 16.9983 83.5001 18.0543 83.5001 19.4463C83.5001 21.7023 85.2761 23.3103 87.7721 23.3103C89.3321 23.3103 90.6761 22.6383 91.3721 21.5343L91.6121 23.0703H94.2521V15.6063C94.2521 12.7503 92.3081 10.9983 89.1881 10.9983ZM88.2281 20.8623C87.0761 20.8623 86.3801 20.3343 86.3801 19.4943C86.3801 19.0623 86.5481 18.7263 86.8601 18.5103C87.2441 18.2223 87.8201 18.1023 88.8041 18.1023H91.3721C91.3721 19.6383 89.9561 20.8623 88.2281 20.8623ZM95.6758 23.0703H99.2038L101.652 19.0863L104.1 23.0703H107.628L103.548 17.1183L107.628 11.2383H104.1L101.652 15.1503L99.2038 11.2383H95.6758L99.7318 17.1183L95.6758 23.0703Z" fill="white"/>
</svg>
