<svg width="179" height="39" viewBox="0 0 179 39" fill="none" xmlns="http://www.w3.org/2000/svg">
<path d="M63.6192 22.376L62.5599 25.3709H62.4716C62.295 24.6956 61.9714 23.6679 61.4417 22.4347L55.7625 8.19404H50.2011V30.891H53.8793V16.8852C53.8793 16.0044 53.8793 15.0061 53.8499 13.7729C53.8204 13.1562 53.7616 12.6865 53.7322 12.3341H53.8204C53.997 13.215 54.203 13.8609 54.3501 14.272L61.1769 30.8323H63.7663L70.5343 14.1252C70.6814 13.7435 70.8285 12.9801 70.9756 12.3341H71.0639C70.9756 14.0077 70.9168 15.5052 70.8874 16.4154V30.8029H74.801V8.13531H69.4455L63.6192 22.376ZM78.5086 14.5363H82.334V30.8029H78.5086V14.5363ZM80.4507 7.66552C79.8034 7.66552 79.2737 7.90042 78.8323 8.31149C78.3909 8.72256 78.1555 9.25108 78.1555 9.89704C78.1555 10.5136 78.3909 11.0422 78.8323 11.4532C79.2737 11.8643 79.8034 12.0698 80.4507 12.0698C81.0981 12.0698 81.6572 11.8349 82.0691 11.4532C82.5105 11.0422 82.7459 10.5136 82.7459 9.89704C82.7459 9.28044 82.5105 8.75192 82.0691 8.31149C81.6866 7.90042 81.1275 7.66552 80.4507 7.66552ZM95.8993 14.3895C95.193 14.2426 94.4574 14.1546 93.7512 14.1546C92.0151 14.1546 90.4261 14.5363 89.1019 15.2997C87.7777 16.0631 86.7184 17.1201 86.0416 18.4414C85.3354 19.7921 84.9823 21.3483 84.9823 23.1394C84.9823 24.6956 85.3354 26.0756 86.0122 27.3382C86.689 28.5714 87.6306 29.5697 88.8959 30.245C90.1024 30.9204 91.5148 31.2727 93.1038 31.2727C94.9282 31.2727 96.4878 30.891 97.7236 30.1863L97.7531 30.1569V26.6335L97.6059 26.7509C97.0469 27.162 96.3995 27.5143 95.7521 27.7199C95.0753 27.9548 94.4574 28.0722 93.9277 28.0722C92.3976 28.0722 91.1911 27.6318 90.3378 26.6628C89.455 25.7233 89.0136 24.4313 89.0136 22.8164C89.0136 21.1428 89.455 19.8215 90.3672 18.8525C91.2794 17.8836 92.4859 17.3844 93.9571 17.3844C95.193 17.3844 96.4583 17.7955 97.6059 18.6176L97.7531 18.7351V15.0061L97.7236 14.9767C97.2234 14.7712 96.6643 14.5363 95.8993 14.3895ZM108.523 14.272C107.581 14.272 106.699 14.5656 105.933 15.1822C105.286 15.7108 104.845 16.4742 104.462 17.3844H104.433V14.5363H100.607V30.8029H104.433V22.4934C104.433 21.084 104.727 19.9095 105.374 19.058C106.022 18.1772 106.846 17.7367 107.846 17.7367C108.199 17.7367 108.552 17.8248 108.994 17.8836C109.406 18.001 109.7 18.1185 109.906 18.2653L110.053 18.3827V14.5656L109.965 14.5363C109.7 14.3601 109.17 14.272 108.523 14.272ZM118.94 14.1839C116.262 14.1839 114.114 14.9767 112.613 16.5329C111.083 18.0891 110.347 20.2325 110.347 22.9338C110.347 25.459 111.112 27.5144 112.584 29.0118C114.055 30.4799 116.056 31.2433 118.557 31.2433C121.176 31.2433 123.265 30.4506 124.766 28.865C126.296 27.2795 127.032 25.1654 127.032 22.5521C127.032 19.9683 126.325 17.9129 124.884 16.4154C123.501 14.918 121.47 14.1839 118.94 14.1839ZM122 26.6922C121.294 27.6024 120.175 28.0429 118.792 28.0429C117.409 28.0429 116.291 27.6024 115.497 26.6335C114.702 25.7233 114.32 24.402 114.32 22.7283C114.32 20.9959 114.732 19.6746 115.497 18.7351C116.291 17.7955 117.38 17.3257 118.763 17.3257C120.117 17.3257 121.176 17.7661 121.941 18.6763C122.706 19.5866 123.118 20.9079 123.118 22.6402C123.059 24.402 122.736 25.782 122 26.6922ZM135.565 21.2896C134.359 20.7904 133.594 20.4087 133.241 20.0857C132.946 19.7921 132.799 19.381 132.799 18.8525C132.799 18.4121 132.976 17.9716 133.417 17.678C133.858 17.3844 134.359 17.2376 135.094 17.2376C135.742 17.2376 136.418 17.355 137.066 17.5312C137.713 17.7074 138.302 17.9716 138.773 18.324L138.92 18.4414V14.8593L138.831 14.8299C138.39 14.6537 137.802 14.4775 137.095 14.3307C136.389 14.2133 135.742 14.1546 135.212 14.1546C133.388 14.1546 131.887 14.595 130.71 15.5639C129.533 16.4742 128.974 17.7074 128.974 19.1461C128.974 19.9095 129.091 20.5849 129.356 21.1428C129.621 21.7006 130.004 22.2292 130.533 22.6696C131.063 23.0807 131.828 23.5505 132.887 23.9909C133.77 24.3726 134.447 24.6662 134.859 24.9011C135.271 25.136 135.536 25.4003 135.742 25.6058C135.889 25.8407 135.977 26.1343 135.977 26.516C135.977 27.6024 135.153 28.131 133.476 28.131C132.829 28.131 132.152 28.0135 131.357 27.7492C130.563 27.485 129.827 27.1033 129.209 26.6628L129.062 26.5454V30.2744L129.15 30.3038C129.709 30.568 130.386 30.7442 131.21 30.9497C132.034 31.0965 132.77 31.214 133.417 31.214C135.389 31.214 137.007 30.7736 138.155 29.8046C139.332 28.865 139.95 27.6612 139.95 26.105C139.95 25.0186 139.655 24.0496 139.008 23.3156C138.155 22.6109 137.095 21.8768 135.565 21.2896ZM150.043 14.1839C147.365 14.1839 145.217 14.9767 143.716 16.5329C142.215 18.0891 141.45 20.2325 141.45 22.9338C141.45 25.459 142.215 27.5144 143.687 29.0118C145.158 30.4799 147.159 31.2433 149.66 31.2433C152.279 31.2433 154.368 30.4506 155.869 28.865C157.399 27.2795 158.135 25.1654 158.135 22.5521C158.135 19.9683 157.428 17.9129 155.987 16.4154C154.604 14.918 152.573 14.1839 150.043 14.1839ZM153.073 26.6922C152.367 27.6024 151.249 28.0429 149.866 28.0429C148.454 28.0429 147.365 27.6024 146.57 26.6335C145.776 25.7233 145.393 24.402 145.393 22.7283C145.393 20.9959 145.805 19.6746 146.57 18.7351C147.365 17.7955 148.454 17.3257 149.837 17.3257C151.161 17.3257 152.25 17.7661 153.015 18.6763C153.78 19.5866 154.192 20.9079 154.192 22.6402C154.192 24.402 153.809 25.782 153.073 26.6922ZM178.586 17.678V14.5363H174.731V9.72087L174.613 9.75023L170.964 10.8366L170.876 10.866V14.5363H165.109V12.4809C165.109 11.5413 165.344 10.8073 165.756 10.3375C166.168 9.86768 166.786 9.63278 167.551 9.63278C168.081 9.63278 168.64 9.75023 169.258 10.0145L169.405 10.1026V6.78465L169.316 6.75529C168.787 6.57912 168.081 6.46167 167.168 6.46167C166.021 6.46167 165.02 6.72593 164.108 7.16636C163.196 7.66552 162.519 8.34085 162.019 9.25108C161.519 10.1319 161.254 11.1303 161.254 12.2754V14.5363H158.576V17.6487H161.254V30.8029H165.109V17.678H170.876V26.0462C170.876 29.4816 172.494 31.214 175.731 31.214C176.261 31.214 176.82 31.1259 177.35 31.0378C177.909 30.9204 178.321 30.7736 178.556 30.6561L178.586 30.6267V27.485L178.438 27.6024C178.203 27.7492 177.997 27.8667 177.644 27.9548C177.35 28.0429 177.085 28.0722 176.879 28.0722C176.114 28.0722 175.584 27.8961 175.202 27.4556C174.849 27.0446 174.672 26.3692 174.672 25.3709V17.678H178.586Z" fill="#737373"/>
<path d="M0.883789 0.55957H18.9218V18.5586H0.883789V0.55957Z" fill="#F25022"/>
<path d="M20.8044 0.55957H38.8424V18.5586H20.8044V0.55957Z" fill="#7FBA00"/>
<path d="M0.883813 20.4377H18.9218V38.4368H0.883813V20.4377Z" fill="#00A4EF"/>
<path d="M20.8044 20.4377H38.8424V38.4368H20.8044V20.4377Z" fill="#FFB900"/>
</svg>
