<svg width="163" height="39" viewBox="0 0 163 39" fill="none" xmlns="http://www.w3.org/2000/svg">
<path d="M58.1325 14.0317V16.1783H58.1982C58.9706 15.029 60.2529 13.6755 63.0951 13.6755C65.3064 13.6755 67.0026 14.801 67.7296 16.5012H67.7952C68.4162 15.6416 69.128 14.991 69.9257 14.5303C70.8697 13.9842 71.9198 13.6708 73.2425 13.6708C76.2362 13.6708 78.8866 15.6179 78.8866 20.5284V29.8414H74.3228V21.1791C74.3228 18.6905 73.4242 17.2516 71.5563 17.2516C70.1882 17.2516 69.1936 18.1159 68.815 19.1797C68.6838 19.5454 68.6232 20.044 68.6232 20.4619V29.8461H64.0594V20.8276C64.0594 18.7143 63.1961 17.2468 61.3534 17.2468C59.8793 17.2468 58.9554 18.3391 58.5768 19.2747C58.4153 19.6736 58.3648 20.1343 58.3648 20.5664V29.8414H53.796V14.0317H58.1325ZM102.443 14.0317V17.0141H102.569C103.407 14.7346 105.396 13.6755 107.143 13.6755C107.582 13.6755 107.824 13.7088 108.178 13.7752V17.9164C107.759 17.8595 107.37 17.8025 106.825 17.8025C104.846 17.8025 103.467 18.8853 103.119 20.5807C103.043 20.9321 103.018 21.312 103.018 21.749V29.8461H98.3332V14.0317H102.443ZM114.539 8.79346V13.7705H118.497V17.7977H114.539V23.7388C114.539 25.6622 115.059 26.593 116.603 26.593C117.33 26.593 117.866 26.5075 118.33 26.3983L118.391 29.7369C117.77 29.9554 116.447 30.1928 115.104 30.1928C113.524 30.1928 112.206 29.6752 111.404 28.8726C110.485 27.956 110.061 26.4553 110.061 24.3182V8.79346H114.539ZM50.6154 29.8414H46.0719V8.79346H50.6154V29.8414ZM38.4992 24.1947C38.4992 24.4844 38.474 24.7884 38.3882 25.0496C38.0348 26.1466 36.8282 27.0727 35.3238 27.0727C34.0667 27.0727 33.0671 26.4031 33.0671 24.9831C33.0671 22.8127 35.6115 22.2096 38.5043 22.2239V24.1947H38.4992ZM43.0378 20.4097C43.0378 16.8242 41.4122 13.6755 35.9144 13.6755C33.0924 13.6755 30.8509 14.4211 29.6291 15.086L30.5227 17.9639C31.6384 17.2991 33.4205 16.7529 35.1067 16.7529C37.8985 16.7482 38.3528 18.2394 38.3528 19.1939V19.4219C32.2695 19.4124 28.4276 21.3928 28.4276 25.4295C28.4276 27.8943 30.3814 30.2023 33.784 30.2023C35.8791 30.2023 37.6258 29.4187 38.6759 28.1602H38.7769C38.7769 28.1602 39.4736 30.8909 43.3003 29.8461C43.0983 28.7064 43.0327 27.4953 43.0327 26.0374V20.4097H43.0378ZM5.60368 8.79346C6.07318 11.0208 7.40596 17.489 7.40596 17.489C7.96634 20.1485 8.48128 22.9362 8.87001 25.1398H8.94069C9.31932 22.7985 9.91503 20.5807 10.5511 17.8357L12.7977 8.79346H17.7704L19.8705 18.0684C20.4208 20.6472 20.86 22.637 21.2084 25.0353H21.274C21.6526 22.6133 22.1474 20.5427 22.6875 17.8927L24.7069 8.79346H29.4777L23.566 29.8414C19.7999 30.6155 18.356 29.1908 17.8411 26.9302C17.3261 24.6649 16.3164 20.3575 16.3164 20.3575C15.7964 17.9972 15.3926 16.335 15.1099 13.913H15.0392C14.6353 16.3113 14.2112 17.9924 13.5852 20.3527L11.1065 29.8461C7.25956 30.568 5.92678 29.4995 5.18971 26.5978C4.5536 24.114 0.585541 8.79821 0.585541 8.79821H5.60368V8.79346ZM90.7605 24.1947C90.7605 24.4844 90.7353 24.7884 90.6495 25.0496C90.2961 26.1466 89.0895 27.0727 87.5851 27.0727C86.328 27.0727 85.3284 26.4031 85.3284 24.9831C85.3284 22.8127 87.8728 22.2096 90.7656 22.2239V24.1947H90.7605ZM95.2991 20.4097C95.2991 16.8242 93.6735 13.6755 88.1757 13.6755C85.3537 13.6755 83.1122 14.4211 81.8904 15.086L82.784 17.9639C83.8997 17.2991 85.6818 16.7529 87.368 16.7529C90.1547 16.7482 90.6141 18.2394 90.6141 19.1939V19.4219C84.5358 19.4124 80.694 21.3928 80.694 25.4295C80.694 27.8943 82.6528 30.2023 86.0503 30.2023C88.1404 30.2023 89.8922 29.4187 90.9372 28.1602H91.0432C91.0432 28.1602 91.7399 30.8909 95.5666 29.8461C95.3647 28.7064 95.2991 27.4953 95.2991 26.0374V20.4097Z" fill="#041E42"/>
<path d="M136.915 22.5926C137.363 23.3613 137.333 24.2192 136.855 24.611L128.592 30.3188C127.731 30.8098 126.443 30.2147 125.713 28.97C124.979 27.7203 125.109 26.3268 125.97 25.8358L135.118 21.6405C135.692 21.4223 136.467 21.824 136.915 22.5926ZM147.79 22.5926C148.242 21.824 149.012 21.4272 149.586 21.6355L158.74 25.8309C159.6 26.3218 159.726 27.7153 158.996 28.965C158.262 30.2097 156.968 30.7998 156.113 30.3139L147.85 24.606C147.377 24.2192 147.342 23.3563 147.79 22.5926ZM142.35 25.6871C143.25 25.6871 143.99 26.1433 144.091 26.7433L144.982 36.6515C144.982 37.6334 143.819 38.4368 142.355 38.4368C140.895 38.4368 139.728 37.6334 139.728 36.6515L140.614 26.7433C140.714 26.1433 141.454 25.6871 142.35 25.6871ZM147.85 14.3904L156.113 8.67753C156.968 8.18659 158.262 8.77671 158.996 10.0264C159.726 11.2761 159.6 12.6696 158.74 13.1605L149.586 17.3608C149.012 17.5691 148.237 17.1724 147.79 16.4037C147.342 15.6351 147.377 14.7772 147.85 14.3904ZM135.118 17.3608L125.97 13.1605C125.114 12.6696 124.984 11.2761 125.713 10.0264C126.443 8.77671 127.736 8.18659 128.592 8.67753L136.855 14.3904C137.333 14.7722 137.363 15.6351 136.915 16.4037C136.467 17.1724 135.692 17.5691 135.118 17.3608ZM140.614 12.253L139.728 2.34483C139.728 1.36294 140.89 0.55957 142.355 0.55957C143.819 0.55957 144.982 1.36294 144.982 2.34483L144.091 12.253C143.99 12.8481 143.25 13.3093 142.35 13.3093C141.454 13.3093 140.714 12.8481 140.614 12.253ZM161.231 30.2791V30.0312H161.457C161.532 30.0312 161.583 30.0808 161.583 30.1552C161.583 30.2246 161.532 30.2791 161.457 30.2791H161.231ZM161.044 30.7304C161.044 30.7552 161.064 30.78 161.095 30.78H161.19C161.215 30.78 161.241 30.7552 161.241 30.7304V30.4478H161.397L161.522 30.7453C161.532 30.7651 161.548 30.78 161.568 30.78H161.683C161.719 30.78 161.744 30.7453 161.729 30.7106C161.683 30.6213 161.638 30.5271 161.593 30.4329C161.668 30.4081 161.784 30.3337 161.784 30.1552C161.784 29.9667 161.628 29.8576 161.472 29.8576H161.095C161.07 29.8576 161.044 29.8824 161.044 29.9072V30.7304ZM160.637 30.3188C160.637 29.9171 160.969 29.5898 161.376 29.5898C161.784 29.5898 162.116 29.9122 162.116 30.3188C162.116 30.7205 161.789 31.0478 161.376 31.0478C160.964 31.0478 160.637 30.7205 160.637 30.3188ZM160.461 30.3188C160.461 30.8147 160.868 31.2214 161.376 31.2214C161.88 31.2214 162.292 30.8147 162.292 30.3188C162.292 29.8229 161.88 29.4163 161.376 29.4163C160.868 29.4163 160.461 29.8229 160.461 30.3188Z" fill="#FFC124"/>
</svg>
